<svg width="50" height="21" viewBox="0 0 50 21" fill="none" xmlns="http://www.w3.org/2000/svg">
<g clip-path="url(#clip0_252_621)">
<path d="M18.0723 4.19999C8.49398 6.50169 0.518072 8.42372 0.325301 8.45931L0 8.54236L0.0240964 14.6881L0.060241 20.822L17.8554 20.8576L35.6627 20.8813L42.7711 17.3813L49.8795 13.8813L49.8554 6.9644L49.8193 0.0593128L42.6506 0.0355854L35.4819 0.0237198L18.0723 4.19999ZM49.3976 6.99999V13.4068H42.4699H35.5422V6.99999V0.593212H42.4699H49.3976V6.99999ZM35.0602 14.7119V20.4068H17.8313H0.60241V14.7119V9.01694H17.8313H35.0602V14.7119ZM47.8193 14.2966C46.6265 14.9017 35.6988 20.1695 35.6265 20.1695C35.5783 20.1695 35.5422 18.7813 35.5422 17.0847V14H41.9639L48.3735 14.0119L47.8193 14.2966Z" fill="#FF5252"/>
<path d="M39.5301 4.283C39.1325 4.40165 38.0723 5.06606 38.0723 5.20843C38.0723 5.24402 38.2409 5.44572 38.4458 5.64741L38.8313 6.03894L39.4096 5.7186C39.9518 5.42199 40.012 5.41012 40.3253 5.57623C40.6988 5.77792 40.8193 6.19317 40.6024 6.57284C40.5301 6.71521 39.9036 7.30843 39.2168 7.88978C38.0361 8.8864 37.9638 8.98131 37.9518 9.39656V9.84741H40H42.0482V9.19487V8.54233H41.1205H40.2048L40.9879 7.73555C41.9036 6.81012 42.1446 6.22877 41.9277 5.48131C41.8554 5.24402 41.7349 4.95928 41.6506 4.8525C41.2409 4.33046 40.2771 4.06945 39.5301 4.283Z" fill="#FF5252"/>
<path d="M44.2771 6.24063C43.2048 7.69995 42.8193 8.29317 42.7952 8.60165L42.759 9.0169H44.0241H45.3012V9.43216V9.84741H45.9036H46.506V9.43216C46.506 9.09995 46.5542 9.0169 46.747 9.0169C46.9639 9.0169 46.9879 8.93385 46.9879 8.36436C46.9879 7.79487 46.9639 7.71182 46.747 7.71182C46.5181 7.71182 46.506 7.62877 46.506 5.99148V4.27114H46.1205C45.747 4.28301 45.6265 4.41351 44.2771 6.24063ZM45.2651 7.67623C45.2289 7.69995 45.012 7.71182 44.7831 7.68809L44.3494 7.6525L44.7952 7.05928L45.241 6.46606L45.2771 7.04741C45.3012 7.35589 45.2892 7.64063 45.2651 7.67623Z" fill="#FF5252"/>
<path d="M3.49396 14.6525V17.4407H4.15661H4.81926V16.3729C4.81926 15.3169 4.81926 15.3051 5.12046 15.3051C5.48191 15.3051 5.60239 15.4474 6.30119 16.5508L6.83131 17.3813L7.59034 17.4169L8.33733 17.4525L8.01203 16.883C7.81926 16.5745 7.40962 15.922 7.08432 15.4356C6.51805 14.5813 6.50601 14.5457 6.71083 14.3203C6.83131 14.2017 7.2289 13.6084 7.61444 13.0152L8.28914 11.9237L7.5542 11.8881C7.14456 11.8644 6.79516 11.9 6.78311 11.9474C6.75902 11.9949 6.45781 12.4695 6.10842 12.9915C5.61444 13.7508 5.40962 13.9525 5.15661 13.9762L4.81926 14.0118V12.944V11.8644H4.15661H3.49396V14.6525Z" fill="#FF5252"/>
<path d="M10.253 14.5576C9.65059 16.0525 9.15662 17.2983 9.15662 17.3458C9.15662 17.4051 9.48192 17.4407 9.86746 17.4407C10.5542 17.4407 10.5783 17.4288 10.7108 17.0847C10.8313 16.7288 10.8434 16.7288 11.7349 16.7288C12.6144 16.7288 12.6265 16.7288 12.759 17.0847C12.8795 17.4288 12.9036 17.4407 13.6265 17.4407C14.1687 17.4407 14.3494 17.4051 14.3012 17.2864C14.0723 16.7169 12.5783 12.9915 12.3855 12.4814C12.1687 11.9119 12.1205 11.8644 11.747 11.8644H11.3494L10.253 14.5576ZM11.7831 15.4C11.5904 15.4237 11.3976 15.4119 11.3735 15.3881C11.3373 15.3644 11.4096 15.1034 11.5181 14.8305L11.7229 14.3203L11.9397 14.8424L12.1446 15.3644L11.7831 15.4Z" fill="#FF5252"/>
<path d="M15.5422 14.6525V17.4407H16.2048H16.8675V16.8475C16.8675 16.2661 16.8795 16.2542 17.2169 16.2542C17.6145 16.2542 17.8072 16.4085 18.1928 17.0254C18.4458 17.4288 18.4819 17.4407 19.1687 17.4407C19.5542 17.4407 19.8795 17.4051 19.8795 17.3458C19.8795 17.2271 19.3133 16.3847 19.0121 16.0644C18.7831 15.8034 18.7831 15.8034 19.1325 15.5542C19.5301 15.2814 19.8795 14.5458 19.8795 13.9881C19.8795 13.7983 19.7952 13.4424 19.6988 13.2051C19.253 12.161 18.6265 11.8763 16.8434 11.8644H15.5422V14.6525ZM18.2892 13.3593C18.4819 13.4898 18.5542 13.6559 18.5542 13.9763C18.5542 14.2136 18.506 14.4746 18.4578 14.5458C18.3012 14.783 17.8554 14.9491 17.3615 14.9491H16.8675V14.0593V13.1695H17.4458C17.7711 13.1695 18.1325 13.2525 18.2892 13.3593Z" fill="#FF5252"/>
<path d="M22.3012 12.1728C20.2771 13.1694 20.2651 16.1118 22.2771 17.1677C23.1928 17.6423 24.5542 17.4881 25.2651 16.8237C25.5181 16.5983 25.5422 16.4559 25.5422 15.4593V14.3559H24.5181H23.494V14.8305C23.494 15.2813 23.5181 15.305 23.8554 15.305C24.1928 15.305 24.2169 15.3406 24.2169 15.7203C24.2169 16.0881 24.1807 16.1355 23.7831 16.2067C22.9157 16.361 22.0482 15.6135 22.0482 14.7118C22.0482 13.4186 23.3614 12.683 24.4458 13.3711C24.7108 13.5372 24.747 13.5254 25.1446 13.1338L25.5663 12.7305L25.1687 12.4338C24.2771 11.7813 23.2892 11.6983 22.3012 12.1728Z" fill="#FF5252"/>
<path d="M28.3735 12.0898C27.7711 12.3508 27.0602 13.1102 26.8675 13.7034C26.6265 14.4271 26.759 15.5424 27.1807 16.2068C27.9518 17.4407 29.6265 17.8085 30.9157 17.0135C32.3855 16.1237 32.6144 13.8695 31.3735 12.6474C30.6024 11.8881 29.3373 11.6508 28.3735 12.0898ZM30.0361 13.2169C30.6024 13.4424 30.8916 13.9407 30.8916 14.6525C30.8916 15.4 30.5422 15.9339 29.9277 16.1356C29.0241 16.4322 28.1928 15.8864 28 14.8779C27.8916 14.3085 28.3012 13.5017 28.8072 13.2525C29.3132 13.0152 29.5301 13.0034 30.0361 13.2169Z" fill="#FF5252"/>
</g>
<defs>
<clipPath id="clip0_252_621">
<rect width="50" height="21" fill="white"/>
</clipPath>
</defs>
</svg>
