<?xml version="1.0" encoding="UTF-8" standalone="no" ?>
<!DOCTYPE svg PUBLIC "-//W3C//DTD SVG 1.1//EN" "http://www.w3.org/Graphics/SVG/1.1/DTD/svg11.dtd">
<svg xmlns="http://www.w3.org/2000/svg" xmlns:xlink="http://www.w3.org/1999/xlink" version="1.1" width="1080" height="1080" viewBox="0 0 1080 1080" xml:space="preserve">
<desc>Created with Fabric.js 5.2.4</desc>
<defs>
</defs>
<rect x="0" y="0" width="100%" height="100%" fill="transparent"></rect>
<g transform="matrix(1 0 0 1 540 540)" id="1dd15607-c115-4480-8137-2f1347a0dd40"  >
</g>
<g transform="matrix(1 0 0 1 540 540)" id="63641685-6438-40a2-a0f4-661f1db99558"  >
<rect style="stroke: none; stroke-width: 1; stroke-dasharray: none; stroke-linecap: butt; stroke-dashoffset: 0; stroke-linejoin: miter; stroke-miterlimit: 4; fill: rgb(255,255,255); fill-rule: nonzero; opacity: 1; visibility: hidden;" vector-effect="non-scaling-stroke"  x="-540" y="-540" rx="0" ry="0" width="1080" height="1080" />
</g>
<g transform="matrix(6.15 0 0 6.15 540 540)"  >
<g style=""   >
		<g transform="matrix(1 0 0 1 0 0)" id="polygon2"  >
<polygon style="stroke: none; stroke-width: 1; stroke-dasharray: none; stroke-linecap: butt; stroke-dashoffset: 0; stroke-linejoin: miter; stroke-miterlimit: 4; fill: rgb(254,204,0); fill-rule: nonzero; opacity: 1;" vector-effect="non-scaling-stroke"  points="-87.87,19.39 -87.87,-19.39 87.87,-19.39 87.87,19.39 " />
</g>
		<g transform="matrix(1 0 0 1 0 0)"  >
<path style="stroke: none; stroke-width: 1; stroke-dasharray: none; stroke-linecap: butt; stroke-dashoffset: 0; stroke-linejoin: miter; stroke-miterlimit: 4; fill: rgb(213,0,41); fill-rule: nonzero; opacity: 1;" vector-effect="non-scaling-stroke"  transform=" translate(-87.87, -19.39)" d="M 56.665 16.206 C 55.897 17.246 54.612 19.054 53.83 20.11 C 53.433 20.647 52.716 21.622 55.092999999999996 21.622 C 57.608 21.622 67.608 21.622 67.608 21.622 C 67.608 21.622 69.625 18.878 71.316 16.583 C 73.616 13.460999999999999 71.515 6.964999999999998 63.292 6.964999999999998 C 55.932 6.964999999999998 30.908 6.964999999999998 30.908 6.964999999999998 L 25.293 14.593999999999998 C 25.293 14.593999999999998 54.402 14.593999999999998 55.896 14.593999999999998 C 57.441 14.593999999999998 57.42 15.181999999999997 56.665 16.205999999999996 z M 47.471 23.503999999999998 C 45.093999999999994 23.503999999999998 45.811 22.526999999999997 46.208 21.99 C 46.989999999999995 20.933999999999997 48.296 19.145 49.064 18.104999999999997 C 49.82 17.080999999999996 49.84 16.492999999999995 48.293 16.492999999999995 C 46.8 16.492999999999995 34.297 16.492999999999995 34.297 16.492999999999995 L 23.02 31.819 C 23.02 31.819 43.161 31.819 50.521 31.819 C 59.604 31.819 64.661 25.641 66.22 23.505 C 66.22 23.503999999999998 49.985 23.503999999999998 47.471000000000004 23.503999999999998 z M 65.36099999999999 31.818999999999996 L 81.49399999999999 31.818999999999996 L 87.60999999999999 23.502999999999993 L 71.47899999999998 23.504999999999992 C 71.47399999999999 23.50399999999999 65.36099999999999 31.818999999999992 65.36099999999999 31.818999999999992 z M 106.98599999999999 6.964999999999996 L 100.79799999999999 15.369999999999996 L 93.59799999999998 15.369999999999996 L 99.783 6.965 L 83.655 6.965 L 72.86500000000001 21.622 L 112.32500000000002 21.622 L 123.112 6.965 Z M 88.694 31.819 L 104.821 31.819 L 110.94 23.505 L 94.813 23.505 C 94.807 23.503999999999998 88.694 31.819 88.694 31.819 z M 0 26.784 L 0 28.549999999999997 L 22.468 28.549999999999997 L 23.766 26.784 z M 26.181 23.503999999999998 L 0 23.503999999999998 L 0 25.267999999999997 L 24.88 25.267999999999997 Z M 0 31.819 L 20.061 31.819 L 21.353 30.063 L 0 30.063 Z M 152.072 28.549 L 175.748 28.549 L 175.748 26.783 L 153.37199999999999 26.783 z M 149.667 31.819 L 175.748 31.819 L 175.748 30.063 L 150.958 30.063 z M 155.78300000000002 23.503999999999998 L 154.48600000000002 25.269999999999996 L 175.74800000000002 25.269999999999996 L 175.74800000000002 23.504 Z M 134.659 21.622 L 145.448 6.965 L 128.36700000000002 6.965 C 128.36100000000002 6.965 117.57000000000002 21.622 117.57000000000002 21.622 z M 116.18699999999998 23.504 C 116.18699999999998 23.504 115.00799999999998 25.115000000000002 114.43499999999999 25.891000000000002 C 112.40999999999998 28.627000000000002 114.201 31.819000000000003 120.81099999999999 31.819000000000003 C 128.447 31.819000000000003 146.712 31.819000000000003 146.712 31.819000000000003 L 152.831 23.505000000000003 L 116.18699999999998 23.505000000000003 z" stroke-linecap="round" />
</g>
</g>
</g>
</svg>