<?xml version="1.0" encoding="UTF-8" standalone="no" ?>
<!DOCTYPE svg PUBLIC "-//W3C//DTD SVG 1.1//EN" "http://www.w3.org/Graphics/SVG/1.1/DTD/svg11.dtd">
<svg xmlns="http://www.w3.org/2000/svg" xmlns:xlink="http://www.w3.org/1999/xlink" version="1.1" width="1080" height="1080" viewBox="0 0 1080 1080" xml:space="preserve">
<desc>Created with Fabric.js 5.2.4</desc>
<defs>
</defs>
<g transform="matrix(1 0 0 1 540 540)" id="63641685-6438-40a2-a0f4-661f1db99558"  >
<rect style="stroke: none; stroke-width: 1; stroke-dasharray: none; stroke-linecap: butt; stroke-dashoffset: 0; stroke-linejoin: miter; stroke-miterlimit: 4; fill: rgb(255,255,255); fill-rule: nonzero; opacity: 1; visibility: hidden;" vector-effect="non-scaling-stroke"  x="-540" y="-540" rx="0" ry="0" width="1080" height="1080" />
</g>
<g transform="matrix(1 0 0 1 540 540)" id="1dd15607-c115-4480-8137-2f1347a0dd40"  >
</g>
<g transform="matrix(25.71 0 0 25.71 540 540)"  >
<g style=""   >
		<g transform="matrix(1 0 0 1 1.29 -0.24)" id="Fill-874"  >
<path style="stroke: none; stroke-width: 1; stroke-dasharray: none; stroke-linecap: butt; stroke-dashoffset: 0; stroke-linejoin: miter; stroke-miterlimit: 4; fill: rgb(0,84,136); fill-rule: evenodd; opacity: 1;" vector-effect="non-scaling-stroke"  transform=" translate(-22.29, -12.76)" d="M 5.41116 0.20628 C 5.41116 0.20628 26.59716 4.55628 27.01956 4.63188 C 31.88556 5.48748 31.73316 6.42708 31.73316 6.42708 C 35.14476 6.40668 35.55996 6.54708 36.15996 7.04268 C 37.95276 8.54148 35.03916 12.95268 35.03916 12.95268 C 34.62036 13.25988 3.10476 25.43508 3.10476 25.43508 L 36.08076 25.43508 L 41.46876 0.08148 L 5.43276 0.08388 L 5.41116 0.20628 L 5.41116 0.20628 Z" stroke-linecap="round" />
</g>
		<g transform="matrix(1 0 0 1 10.17 -3.22)" id="Fill-876"  >
<path style="stroke: none; stroke-width: 1; stroke-dasharray: none; stroke-linecap: butt; stroke-dashoffset: 0; stroke-linejoin: miter; stroke-miterlimit: 4; fill: rgb(0,84,136); fill-rule: evenodd; opacity: 1;" vector-effect="non-scaling-stroke"  transform=" translate(-31.17, -9.78)" d="M 30.0756 8.41284 C 29.6004 8.64804 28.3512 8.77764 27.7668 8.83044 C 27.204 8.87604 27.0516 8.93484 27.0408 9.14964 C 27.036 9.34404 27.1248 9.45324 27.9312 9.45324 C 29.7828 9.45324 33.1176 8.75604 34.1184 9.07524 C 34.6524 9.24564 34.2216 10.18764 33.7908 11.42844 C 33.624 11.90964 33.9504 11.87484 34.1448 11.66724 C 34.3368 11.45484 35.1996 9.87084 35.2932 9.06804 C 35.4264 7.92324 34.4448 7.74924 33.09 7.74924 L 30.9384 7.74924 C 30.8256 7.74924 30.7272 7.82724 30.5988 8.00604 C 30.4788 8.15364 30.3852 8.25804 30.0756 8.41284" stroke-linecap="round" />
</g>
		<g transform="matrix(1 0 0 1 -4.53 2.75)" id="Fill-878"  >
<path style="stroke: none; stroke-width: 1; stroke-dasharray: none; stroke-linecap: butt; stroke-dashoffset: 0; stroke-linejoin: miter; stroke-miterlimit: 4; fill: rgb(0,84,136); fill-rule: evenodd; opacity: 1;" vector-effect="non-scaling-stroke"  transform=" translate(-16.47, -15.75)" d="M 4.1364 6.00386838 L 0 25.5002684 C 0 25.5002684 12.6768 19.2794684 14.2284 18.4790684 C 17.4072 16.8494684 21.8004 14.6882684 25.8612 13.3058684 C 26.6304 13.0478684 29.9472 12.0254684 31.878 11.6798684 C 32.6256 11.5466684 32.9424 11.4182684 32.9328 11.2790684 C 32.9052 10.8818684 32.1528 10.8530684 30.8796 10.9142684 C 26.9916 11.0978684 19.5456 14.0666684 17.4 15.1946684 L 14.9784 7.69586838 L 30.444 7.69586838 C 31.1376 5.74586838 21.294 6.02306838 20.9844 6.00386838 L 4.1388 6.00386838 L 4.1364 6.00386838 Z" stroke-linecap="round" />
</g>
</g>
</g>
</svg>