<?xml version="1.0" encoding="UTF-8" standalone="no" ?>
<!DOCTYPE svg PUBLIC "-//W3C//DTD SVG 1.1//EN" "http://www.w3.org/Graphics/SVG/1.1/DTD/svg11.dtd">
<svg xmlns="http://www.w3.org/2000/svg" xmlns:xlink="http://www.w3.org/1999/xlink" version="1.1" width="1080" height="1080" viewBox="0 0 1080 1080" xml:space="preserve">
<desc>Created with Fabric.js 5.2.4</desc>
<defs>
</defs>
<rect x="0" y="0" width="100%" height="100%" fill="transparent"></rect>
<g transform="matrix(1 0 0 1 540 540)" id="63641685-6438-40a2-a0f4-661f1db99558"  >
<rect style="stroke: none; stroke-width: 1; stroke-dasharray: none; stroke-linecap: butt; stroke-dashoffset: 0; stroke-linejoin: miter; stroke-miterlimit: 4; fill: rgb(255,255,255); fill-rule: nonzero; opacity: 1; visibility: hidden;" vector-effect="non-scaling-stroke"  x="-540" y="-540" rx="0" ry="0" width="1080" height="1080" />
</g>
<g transform="matrix(1 0 0 1 540 540)" id="1dd15607-c115-4480-8137-2f1347a0dd40"  >
</g>
<g transform="matrix(20.67 0 0 20.67 540 540)"  >
<g style=""   >
		<g transform="matrix(1.25 0 0 -1.25 -0.34 1.71)"  >
<path style="stroke: none; stroke-width: 1; stroke-dasharray: none; stroke-linecap: butt; stroke-dashoffset: 0; stroke-linejoin: miter; stroke-miterlimit: 4; fill: rgb(48,21,6); fill-rule: evenodd; opacity: 1;" vector-effect="non-scaling-stroke"  transform=" translate(-58.17, -556.48)" d="M 38.962 567.66 L 39.139390000000006 547.526 L 43.662890000000004 541.9381 L 57.23389 534.7537 L 73.90889 542.9138 L 77.36809 551.1626 L 77.01330999999999 577.8606 L 64.41830999999999 578.21538 L 51.29130999999999 576.08668 L 39.31730999999999 569.16838 z" stroke-linecap="round" />
</g>
		<g transform="matrix(1 0 0 1 -0.05 0.05)"  >
<path style="stroke: none; stroke-width: 1; stroke-dasharray: none; stroke-linecap: butt; stroke-dashoffset: 0; stroke-linejoin: miter; stroke-miterlimit: 4; fill: rgb(250,184,10); fill-rule: nonzero; opacity: 1;" vector-effect="non-scaling-stroke"  transform=" translate(-25.62, -30.49)" d="M 25.619 0 C 15.738 0 7.119 1.913 0 5.6855 L 0 35.8455 C 0 42.1917 2.3845 47.4985 6.8945 51.1955 C 11.082 54.630500000000005 24.032500000000002 60.2912 25.619500000000002 60.9787 C 27.1245 60.3237 40.228500000000004 54.575500000000005 44.349500000000006 51.1955 C 48.857000000000006 47.5005 51.24210000000001 42.1921 51.24210000000001 35.8455 L 51.24210000000001 5.685500000000001 C 44.12210000000001 1.912500000000001 35.5031 -0.0004999999999988347 25.61810000000001 -0.0004999999999988347 z M 40.25 5.8398 C 43.196600000000004 5.878325 46.0899 6.060350000000001 48.8867 6.320270000000001 L 48.8867 35.84527 C 48.8867 41.51907 46.8279 46.10227 42.8555 49.374269999999996 C 39.3067 52.296769999999995 28.6055 57.091269999999994 25.6195 58.407469999999996 C 22.5935 57.07346999999999 11.865499999999999 52.218469999999996 8.380499999999998 49.37546999999999 C 4.431599999999998 46.15946999999999 2.352999999999998 41.46746999999999 2.352999999999998 35.84647 L 2.352999999999998 18.594469999999998 C 13.700999999999999 8.187469999999998 27.480999999999998 5.673469999999998 40.248999999999995 5.840469999999998 z M 26.287 19.5878 C 23.8558 19.5878 21.894199999999998 20.131240000000002 20.2792 21.1737 L 20.2792 50.2227 L 24.7382 50.2227 L 24.7382 40.837900000000005 C 25.1832 40.969150000000006 25.8291 41.09181 26.7441 41.09181 C 31.6903 41.09181 34.5332 36.63301 34.5332 30.12281 C 34.5332 23.625310000000002 31.605900000000002 19.58781 26.287100000000002 19.58781 z M 41.522999999999996 19.5878 C 38.5905 19.672800000000002 35.523799999999994 21.7971 35.5425 25.398300000000003 C 35.55 27.7695 36.207339999999995 29.542800000000003 39.8823 31.6991 C 41.8435 32.850300000000004 42.6337 33.6089 42.667500000000004 35.0077 C 42.705000000000005 36.5627 41.6306 37.5003 39.9956 37.494 C 38.573100000000004 37.48275 36.872600000000006 36.6933 35.733900000000006 35.6795 L 35.733900000000006 39.783 C 37.130100000000006 40.615500000000004 38.8723 41.165800000000004 40.63230000000001 41.165800000000004 C 45.03730000000001 41.165800000000004 47.00430000000001 38.0542 47.08930000000001 35.20290000000001 C 47.17305000000001 32.60410000000001 46.45492000000001 30.637700000000006 42.72990000000001 28.449000000000005 C 41.067400000000006 27.474000000000004 39.75450000000001 26.833200000000005 39.798300000000005 25.210700000000006 C 39.84205000000001 23.626900000000006 41.15690000000001 23.070500000000006 42.4194 23.08180000000001 C 43.9769 23.09555000000001 45.48350000000001 23.958130000000008 46.413500000000006 24.91190000000001 L 46.413500000000006 21.03690000000001 C 45.62975000000001 20.43315000000001 43.970400000000005 19.51270000000001 41.52290000000001 19.58770000000001 z M 4.6299999999999955 20.038970000000003 L 4.6299999999999955 34.05097000000001 C 4.6299999999999955 38.774770000000004 6.864499999999996 41.16617000000001 11.274499999999996 41.16617000000001 C 14.003299999999996 41.16617000000001 16.288799999999995 40.53461000000001 17.991299999999995 39.37707000000001 L 17.991299999999995 20.03907000000001 L 13.542099999999994 20.03907000000001 L 13.542099999999994 36.84007000000001 C 13.057099999999995 37.172570000000015 12.337699999999995 37.38499000000001 11.432699999999993 37.38499000000001 C 9.390199999999993 37.38499000000001 9.084999999999994 35.51199000000001 9.084999999999994 34.24829000000001 L 9.084999999999994 20.039290000000012 L 4.629899999999994 20.039290000000012 z M 26.316999999999997 23.177670000000003 C 28.9032 23.177670000000003 29.975199999999997 25.242470000000004 29.975199999999997 30.236270000000005 C 29.975201 35.10877000000001 28.7492 37.46287 26.184199999999997 37.46287 C 25.580449999999995 37.46287 25.055699999999998 37.313340000000004 24.7369 37.19334 L 24.7369 23.50034 C 25.098149999999997 23.32034 25.711979999999997 23.17807 26.317 23.17807 z" stroke-linecap="round" />
</g>
</g>
</g>
</svg>