<?xml version="1.0" encoding="UTF-8" standalone="no" ?>
<!DOCTYPE svg PUBLIC "-//W3C//DTD SVG 1.1//EN" "http://www.w3.org/Graphics/SVG/1.1/DTD/svg11.dtd">
<svg xmlns="http://www.w3.org/2000/svg" xmlns:xlink="http://www.w3.org/1999/xlink" version="1.1" width="1080" height="1080" viewBox="0 0 1080 1080" xml:space="preserve">
<desc>Created with Fabric.js 5.2.4</desc>
<defs>
</defs>
<rect x="0" y="0" width="100%" height="100%" fill="transparent"></rect>
<g transform="matrix(1 0 0 1 540 540)" id="63641685-6438-40a2-a0f4-661f1db99558"  >
<rect style="stroke: none; stroke-width: 1; stroke-dasharray: none; stroke-linecap: butt; stroke-dashoffset: 0; stroke-linejoin: miter; stroke-miterlimit: 4; fill: rgb(255,255,255); fill-rule: nonzero; opacity: 1; visibility: hidden;" vector-effect="non-scaling-stroke"  x="-540" y="-540" rx="0" ry="0" width="1080" height="1080" />
</g>
<g transform="matrix(1 0 0 1 540 540)" id="1dd15607-c115-4480-8137-2f1347a0dd40"  >
</g>
<g transform="matrix(21.6 0 0 21.6 540 540)"  >
<g style=""   >
		<g transform="matrix(1 0 0 1 23.1 5.1)"  >
<path style="stroke: none; stroke-width: 1; stroke-dasharray: none; stroke-linecap: butt; stroke-dashoffset: 0; stroke-linejoin: miter; stroke-miterlimit: 4; fill: rgb(244,121,32); fill-rule: nonzero; opacity: 1;" vector-effect="non-scaling-stroke"  transform=" translate(-48.1, -12.1)" d="M 49.4 12.1 C 49.4 11.299999999999999 48.9 10.799999999999999 48.1 10.799999999999999 C 47.4 10.799999999999999 46.800000000000004 11.399999999999999 46.800000000000004 12.1 C 46.800000000000004 12.9 47.300000000000004 13.4 48.1 13.4 C 48.9 13.4 49.4 12.9 49.4 12.1 L 49.4 12.1 L 49.4 12.1 z M 47.8 12.2 L 47.8 13.1 L 47.5 13.1 L 47.5 11.2 L 48.2 11.2 C 48.6 11.2 48.800000000000004 11.399999999999999 48.800000000000004 11.7 C 48.800000000000004 11.899999999999999 48.7 12.1 48.50000000000001 12.1 L 48.50000000000001 12.1 C 48.70000000000001 12.1 48.70000000000001 12.299999999999999 48.800000000000004 12.5 C 48.800000000000004 12.7 48.900000000000006 13 48.900000000000006 13 L 48.60000000000001 13 C 48.50000000000001 12.8 48.50000000000001 12.6 48.50000000000001 12.4 C 48.50000000000001 12.200000000000001 48.400000000000006 12.200000000000001 48.20000000000001 12.200000000000001 L 47.8 12.200000000000001 L 47.8 12.2 z M 48.1 12 C 48.4 12 48.4 11.9 48.4 11.7 C 48.4 11.5 48.3 11.399999999999999 48.1 11.399999999999999 L 47.800000000000004 11.399999999999999 L 47.800000000000004 12 L 48.1 12 L 48.1 12 z M 46.5 12.1 C 46.5 11.2 47.2 10.5 48.1 10.5 C 48.9 10.5 49.7 11.1 49.7 12.1 C 49.7 13 49 13.7 48.1 13.7 C 47.3 13.7 46.5 13.1 46.5 12.1 L 46.5 12.1 z" stroke-linecap="round" />
</g>
		<g transform="matrix(1 0 0 1 14.3 2.2)"  >
<polygon style="stroke: none; stroke-width: 1; stroke-dasharray: none; stroke-linecap: butt; stroke-dashoffset: 0; stroke-linejoin: miter; stroke-miterlimit: 4; fill: rgb(244,121,32); fill-rule: nonzero; opacity: 1;" vector-effect="non-scaling-stroke"  points="1.7,4.2 -0.1,2.2 -1.9,4.2 -5.7,4.2 -2,0 -5.7,-4.2 -1.8,-4.2 0,-2.1 1.8,-4.2 5.6,-4.2 1.9,0 5.7,4.2 " />
</g>
		<g transform="matrix(1 0 0 1 4.9 -0.2)"  >
<polygon style="stroke: none; stroke-width: 1; stroke-dasharray: none; stroke-linecap: butt; stroke-dashoffset: 0; stroke-linejoin: miter; stroke-miterlimit: 4; fill: rgb(244,121,32); fill-rule: nonzero; opacity: 1;" vector-effect="non-scaling-stroke"  points="-3.7,6.6 -3.7,-6.6 3.7,-6.6 3.7,-3.6 -0.6,-3.6 -0.6,-1.8 3.7,-1.8 3.7,1.1 -0.6,1.1 -0.6,3.7 3.7,3.7 3.7,6.6 " />
</g>
		<g transform="matrix(1 0 0 1 -11.8 0.1)"  >
<path style="stroke: none; stroke-width: 1; stroke-dasharray: none; stroke-linecap: butt; stroke-dashoffset: 0; stroke-linejoin: miter; stroke-miterlimit: 4; fill: rgb(71,47,146); fill-rule: nonzero; opacity: 1;" vector-effect="non-scaling-stroke"  transform=" translate(-13.2, -7.1)" d="M 23.1 0.2 L 23.1 5.6000000000000005 L 23.1 5.6000000000000005 C 22.400000000000002 4.800000000000001 21.6 4.5 20.6 4.5 C 18.6 4.5 17 5.9 16.5 7.7 C 15.9 5.7 14.3 4.5 12 4.5 C 10.1 4.5 8.6 5.4 7.8 6.7 L 7.8 5 L 3.8 5 L 3.8 3.2 L 8.1 3.2 L 8.1 0.2 L 0.3 0.2 L 0.3 13.399999999999999 L 3.8 13.399999999999999 L 3.8 7.9 L 7.3 7.9 C 7.2 8.3 7.1 8.7 7.1 9.2 C 7.1 12 9.2 13.899999999999999 11.899999999999999 13.899999999999999 C 14.2 13.899999999999999 15.599999999999998 12.799999999999999 16.4 10.899999999999999 L 13.399999999999999 10.899999999999999 C 12.999999999999998 11.499999999999998 12.7 11.7 11.899999999999999 11.7 C 10.999999999999998 11.7 10.099999999999998 10.899999999999999 10.099999999999998 9.899999999999999 L 16.199999999999996 9.899999999999999 C 16.499999999999996 12.099999999999998 18.199999999999996 13.999999999999998 20.499999999999996 13.999999999999998 C 21.499999999999996 13.999999999999998 22.399999999999995 13.499999999999998 22.999999999999996 12.699999999999998 L 22.999999999999996 12.699999999999998 L 22.999999999999996 13.599999999999998 L 26.099999999999998 13.599999999999998 L 26.099999999999998 0.2 L 23.1 0.2 z M 10.3 7.9 C 10.5 7.1000000000000005 11.100000000000001 6.5 12 6.5 C 12.9 6.5 13.5 7 13.7 7.9 C 13.7 7.9 10.3 7.9 10.3 7.9 z M 21.3 11.4 C 20.2 11.4 19.5 10.3 19.5 9.2 C 19.5 7.999999999999999 20.1 6.8999999999999995 21.3 6.8999999999999995 C 22.6 6.8999999999999995 23.1 8 23.1 9.2 C 23.1 10.4 22.5 11.4 21.3 11.4 z" stroke-linecap="round" />
</g>
</g>
</g>
</svg>