<?xml version="1.0" encoding="UTF-8" standalone="no" ?>
<!DOCTYPE svg PUBLIC "-//W3C//DTD SVG 1.1//EN" "http://www.w3.org/Graphics/SVG/1.1/DTD/svg11.dtd">
<svg xmlns="http://www.w3.org/2000/svg" xmlns:xlink="http://www.w3.org/1999/xlink" version="1.1" width="1080" height="1080" viewBox="0 0 1080 1080" xml:space="preserve">
<desc>Created with Fabric.js 5.2.4</desc>
<defs>
</defs>
<rect x="0" y="0" width="100%" height="100%" fill="transparent"></rect>
<g transform="matrix(1 0 0 1 540 540)" id="1dd15607-c115-4480-8137-2f1347a0dd40"  >
</g>
<g transform="matrix(1 0 0 1 540 540)" id="63641685-6438-40a2-a0f4-661f1db99558"  >
<rect style="stroke: none; stroke-width: 1; stroke-dasharray: none; stroke-linecap: butt; stroke-dashoffset: 0; stroke-linejoin: miter; stroke-miterlimit: 4; fill: rgb(255,255,255); fill-rule: nonzero; opacity: 1; visibility: hidden;" vector-effect="non-scaling-stroke"  x="-540" y="-540" rx="0" ry="0" width="1080" height="1080" />
</g>
<g transform="matrix(5.81 0 0 5.81 540 515.03)"  >
<g style=""   >
		<g transform="matrix(0.5 -0.87 0.87 0.5 -86.5 -4.08)" id="XBS_1"  >
<ellipse style="stroke: none; stroke-width: 1; stroke-dasharray: none; stroke-linecap: butt; stroke-dashoffset: 0; stroke-linejoin: miter; stroke-miterlimit: 4; fill: rgb(249,176,0); fill-rule: nonzero; opacity: 1;" vector-effect="non-scaling-stroke"  cx="0" cy="0" rx="4.029" ry="5.032" />
</g>
		<g transform="matrix(0.87 -0.5 0.5 0.87 -66.22 -12.78)" id="XBS_1"  >
<ellipse style="stroke: none; stroke-width: 1; stroke-dasharray: none; stroke-linecap: butt; stroke-dashoffset: 0; stroke-linejoin: miter; stroke-miterlimit: 4; fill: rgb(242,139,0); fill-rule: nonzero; opacity: 1;" vector-effect="non-scaling-stroke"  cx="0" cy="0" rx="5.032" ry="4.029" />
</g>
		<g transform="matrix(0.87 -0.5 0.5 0.87 -76.36 -18.43)" id="XBS_1"  >
<ellipse style="stroke: none; stroke-width: 1; stroke-dasharray: none; stroke-linecap: butt; stroke-dashoffset: 0; stroke-linejoin: miter; stroke-miterlimit: 4; fill: rgb(252,189,0); fill-rule: nonzero; opacity: 1;" vector-effect="non-scaling-stroke"  cx="0" cy="0" rx="2.346" ry="1.892" />
</g>
		<g transform="matrix(1 0 0 1 -56.07 -18.44)" id="XBS_1"  >
<path style="stroke: none; stroke-width: 1; stroke-dasharray: none; stroke-linecap: butt; stroke-dashoffset: 0; stroke-linejoin: miter; stroke-miterlimit: 4; fill: rgb(242,139,0); fill-rule: nonzero; opacity: 1;" vector-effect="non-scaling-stroke"  transform=" translate(-36.8, -8.46)" d="M 35.829 10.065 C 36.945 10.727 38.289 10.556 38.818 9.667 C 39.367 8.778 38.894 7.510999999999999 37.778 6.849 C 36.661 6.187 35.318 6.357 34.788 7.246 C 34.239999999999995 8.135 34.712999999999994 9.402000000000001 35.82899999999999 10.065000000000001 Z" stroke-linecap="round" />
</g>
		<g transform="matrix(1 0 0 1 -76.36 -9.79)" id="XBS_1"  >
<ellipse style="stroke: none; stroke-width: 1; stroke-dasharray: none; stroke-linecap: butt; stroke-dashoffset: 0; stroke-linejoin: miter; stroke-miterlimit: 4; fill: rgb(249,176,0); fill-rule: nonzero; opacity: 1;" vector-effect="non-scaling-stroke"  cx="0" cy="0" rx="1.892" ry="2.346" />
</g>
		<g transform="matrix(0.87 -0.5 0.5 0.87 -86.5 -13.4)" id="XBS_1"  >
<ellipse style="stroke: none; stroke-width: 1; stroke-dasharray: none; stroke-linecap: butt; stroke-dashoffset: 0; stroke-linejoin: miter; stroke-miterlimit: 4; fill: rgb(252,189,0); fill-rule: nonzero; opacity: 1;" vector-effect="non-scaling-stroke"  cx="0" cy="0" rx="3.878" ry="3.102" />
</g>
		<g transform="matrix(0.5 -0.87 0.87 0.5 -45.94 -13.4)" id="XBS_1"  >
<ellipse style="stroke: none; stroke-width: 1; stroke-dasharray: none; stroke-linecap: butt; stroke-dashoffset: 0; stroke-linejoin: miter; stroke-miterlimit: 4; fill: rgb(238,113,0); fill-rule: nonzero; opacity: 1;" vector-effect="non-scaling-stroke"  cx="0" cy="0" rx="3.102" ry="3.878" />
</g>
		<g transform="matrix(0.5 -0.87 0.87 0.5 -66.21 -2.81)" id="XBS_1"  >
<ellipse style="stroke: none; stroke-width: 1; stroke-dasharray: none; stroke-linecap: butt; stroke-dashoffset: 0; stroke-linejoin: miter; stroke-miterlimit: 4; fill: rgb(238,113,0); fill-rule: nonzero; opacity: 1;" vector-effect="non-scaling-stroke"  cx="0" cy="0" rx="3.102" ry="3.878" />
</g>
		<g transform="matrix(0.87 -0.5 0.5 0.87 -56.08 -9.79)" id="XBS_1"  >
<ellipse style="stroke: none; stroke-width: 1; stroke-dasharray: none; stroke-linecap: butt; stroke-dashoffset: 0; stroke-linejoin: miter; stroke-miterlimit: 4; fill: rgb(238,113,0); fill-rule: nonzero; opacity: 1;" vector-effect="non-scaling-stroke"  cx="0" cy="0" rx="3.878" ry="3.102" />
</g>
		<g transform="matrix(1 0 0 1 -45.94 -4.76)" id="XBS_1"  >
<ellipse style="stroke: none; stroke-width: 1; stroke-dasharray: none; stroke-linecap: butt; stroke-dashoffset: 0; stroke-linejoin: miter; stroke-miterlimit: 4; fill: rgb(232,76,5); fill-rule: nonzero; opacity: 1;" vector-effect="non-scaling-stroke"  cx="0" cy="0" rx="1.892" ry="2.346" />
</g>
		<g transform="matrix(0.87 -0.5 0.5 0.87 -76.36 -1.14)" id="XBS_1"  >
<ellipse style="stroke: none; stroke-width: 1; stroke-dasharray: none; stroke-linecap: butt; stroke-dashoffset: 0; stroke-linejoin: miter; stroke-miterlimit: 4; fill: rgb(242,139,0); fill-rule: nonzero; opacity: 1;" vector-effect="non-scaling-stroke"  cx="0" cy="0" rx="3.878" ry="3.102" />
</g>
		<g transform="matrix(0.87 -0.5 0.5 0.87 -86.49 4.34)" id="XBS_1"  >
<ellipse style="stroke: none; stroke-width: 1; stroke-dasharray: none; stroke-linecap: butt; stroke-dashoffset: 0; stroke-linejoin: miter; stroke-miterlimit: 4; fill: rgb(249,176,0); fill-rule: nonzero; opacity: 1;" vector-effect="non-scaling-stroke"  cx="0" cy="0" rx="2.346" ry="1.892" />
</g>
		<g transform="matrix(1 0 0 1 -86.49 12.51)" id="XBS_1"  >
<path style="stroke: none; stroke-width: 1; stroke-dasharray: none; stroke-linecap: butt; stroke-dashoffset: 0; stroke-linejoin: miter; stroke-miterlimit: 4; fill: rgb(242,139,0); fill-rule: nonzero; opacity: 1;" vector-effect="non-scaling-stroke"  transform=" translate(-6.39, -39.41)" d="M 7.321 37.778 C 6.205 37.135 4.861 37.324 4.350999999999999 38.232 C 3.8409999999999993 39.14 4.312999999999999 40.388999999999996 5.447999999999999 41.032 C 6.563999999999998 41.675 7.907999999999999 41.486 8.418 40.577999999999996 C 8.947999999999999 39.687999999999995 8.456 38.42099999999999 7.321 37.778 Z" stroke-linecap="round" />
</g>
		<g transform="matrix(1 0 0 1 -66.22 5.15)" id="XBS_1"  >
<ellipse style="stroke: none; stroke-width: 1; stroke-dasharray: none; stroke-linecap: butt; stroke-dashoffset: 0; stroke-linejoin: miter; stroke-miterlimit: 4; fill: rgb(238,113,0); fill-rule: nonzero; opacity: 1;" vector-effect="non-scaling-stroke"  cx="0" cy="0" rx="2.346" ry="1.892" />
</g>
		<g transform="matrix(0.87 -0.5 0.5 0.87 -56.08 0.03)" id="XBS_1"  >
<ellipse style="stroke: none; stroke-width: 1; stroke-dasharray: none; stroke-linecap: butt; stroke-dashoffset: 0; stroke-linejoin: miter; stroke-miterlimit: 4; fill: rgb(232,76,5); fill-rule: nonzero; opacity: 1;" vector-effect="non-scaling-stroke"  cx="0" cy="0" rx="5.032" ry="4.029" />
</g>
		<g transform="matrix(0.87 -0.5 0.5 0.87 -45.94 3.89)" id="XBS_1"  >
<ellipse style="stroke: none; stroke-width: 1; stroke-dasharray: none; stroke-linecap: butt; stroke-dashoffset: 0; stroke-linejoin: miter; stroke-miterlimit: 4; fill: rgb(227,0,11); fill-rule: nonzero; opacity: 1;" vector-effect="non-scaling-stroke"  cx="0" cy="0" rx="3.878" ry="3.102" />
</g>
		<g transform="matrix(1 0 0 1 -56.07 8.65)" id="XBS_1"  >
<path style="stroke: none; stroke-width: 1; stroke-dasharray: none; stroke-linecap: butt; stroke-dashoffset: 0; stroke-linejoin: miter; stroke-miterlimit: 4; fill: rgb(232,76,5); fill-rule: nonzero; opacity: 1;" vector-effect="non-scaling-stroke"  transform=" translate(-36.8, -35.55)" d="M 35.867 37.173 C 36.983 37.816 38.327 37.627 38.836999999999996 36.719 C 39.346999999999994 35.811 38.87499999999999 34.562 37.739999999999995 33.919000000000004 C 36.623999999999995 33.276 35.279999999999994 33.465 34.769999999999996 34.373000000000005 C 34.25899999999999 35.281000000000006 34.732 36.511 35.867 37.173 Z" stroke-linecap="round" />
</g>
		<g transform="matrix(1 0 0 1 -45.95 12.53)" id="XBS_1"  >
<path style="stroke: none; stroke-width: 1; stroke-dasharray: none; stroke-linecap: butt; stroke-dashoffset: 0; stroke-linejoin: miter; stroke-miterlimit: 4; fill: rgb(227,0,11); fill-rule: nonzero; opacity: 1;" vector-effect="non-scaling-stroke"  transform=" translate(-46.92, -39.42)" d="M 45.987 37.797 C 44.871 38.44 44.38 39.706999999999994 44.89 40.596999999999994 C 45.401 41.486 46.744 41.693999999999996 47.86 41.050999999999995 C 48.976 40.407999999999994 49.467999999999996 39.141 48.957 38.251 C 48.447 37.361 47.123 37.153999999999996 45.987 37.797 Z" stroke-linecap="round" />
</g>
		<g transform="matrix(1 0 0 1 -66.22 13.8)" id="XBS_1"  >
<ellipse style="stroke: none; stroke-width: 1; stroke-dasharray: none; stroke-linecap: butt; stroke-dashoffset: 0; stroke-linejoin: miter; stroke-miterlimit: 4; fill: rgb(232,76,5); fill-rule: nonzero; opacity: 1;" vector-effect="non-scaling-stroke"  cx="0" cy="0" rx="3.102" ry="3.878" />
</g>
		<g transform="matrix(0.87 -0.5 0.5 0.87 -76.36 7.5)" id="XBS_1"  >
<ellipse style="stroke: none; stroke-width: 1; stroke-dasharray: none; stroke-linecap: butt; stroke-dashoffset: 0; stroke-linejoin: miter; stroke-miterlimit: 4; fill: rgb(242,139,0); fill-rule: nonzero; opacity: 1;" vector-effect="non-scaling-stroke"  cx="0" cy="0" rx="3.878" ry="3.102" />
</g>
		<g transform="matrix(1 0 0 1 -66.22 23.31)" id="XBS_1"  >
<ellipse style="stroke: none; stroke-width: 1; stroke-dasharray: none; stroke-linecap: butt; stroke-dashoffset: 0; stroke-linejoin: miter; stroke-miterlimit: 4; fill: rgb(232,76,5); fill-rule: nonzero; opacity: 1;" vector-effect="non-scaling-stroke"  cx="0" cy="0" rx="5.032" ry="4.029" />
</g>
		<g transform="matrix(0.5 -0.87 0.87 0.5 -76.36 16.87)" id="XBS_1"  >
<ellipse style="stroke: none; stroke-width: 1; stroke-dasharray: none; stroke-linecap: butt; stroke-dashoffset: 0; stroke-linejoin: miter; stroke-miterlimit: 4; fill: rgb(238,113,0); fill-rule: nonzero; opacity: 1;" vector-effect="non-scaling-stroke"  cx="0" cy="0" rx="3.102" ry="3.878" />
</g>
		<g transform="matrix(0.87 -0.5 0.5 0.87 -56.08 16.86)" id="XBS_1"  >
<ellipse style="stroke: none; stroke-width: 1; stroke-dasharray: none; stroke-linecap: butt; stroke-dashoffset: 0; stroke-linejoin: miter; stroke-miterlimit: 4; fill: rgb(227,0,11); fill-rule: nonzero; opacity: 1;" vector-effect="non-scaling-stroke"  cx="0" cy="0" rx="3.878" ry="3.102" />
</g>
		<g transform="matrix(0.5 -0.87 0.87 0.5 -66.22 -22.27)" id="XBS_1"  >
<ellipse style="stroke: none; stroke-width: 1; stroke-dasharray: none; stroke-linecap: butt; stroke-dashoffset: 0; stroke-linejoin: miter; stroke-miterlimit: 4; fill: rgb(249,176,0); fill-rule: nonzero; opacity: 1;" vector-effect="non-scaling-stroke"  cx="0" cy="0" rx="3.102" ry="3.878" />
</g>
		<g transform="matrix(1 0 0 1 12.78 2.75)" id="XBS_1"  >
<path style="stroke: none; stroke-width: 1; stroke-dasharray: none; stroke-linecap: butt; stroke-dashoffset: 0; stroke-linejoin: miter; stroke-miterlimit: 4; fill: rgb(25,52,149); fill-rule: nonzero; opacity: 1;" vector-effect="non-scaling-stroke"  transform=" translate(-105.65, -29.64)" d="M 141.935 46.6 C 140.195 46.6 137.508 45.237 136.335 44.045 C 135.9 43.61 135.692 43.213 135.692 42.873000000000005 L 135.673 39.71300000000001 C 135.673 39.29700000000001 135.9 39.165000000000006 136.108 39.165000000000006 C 136.316 39.165000000000006 136.525 39.297000000000004 136.714 39.50500000000001 C 138.35999999999999 41.26500000000001 140.062 42.13500000000001 141.916 42.13500000000001 C 144.602 42.13500000000001 145.87 41.13200000000001 145.87 38.99500000000001 L 145.87 37.59500000000001 C 144.81 38.20000000000001 143.505 38.503000000000014 141.935 38.503000000000014 C 139.475 38.503000000000014 137.52700000000002 37.59500000000001 136.14600000000002 35.798000000000016 C 134.91600000000003 34.19000000000002 134.27300000000002 32.16600000000002 134.27300000000002 29.763000000000016 C 134.27300000000002 27.474000000000014 134.87900000000002 25.488000000000014 136.07100000000003 23.880000000000017 C 137.43300000000002 22.007000000000016 139.40000000000003 21.061000000000018 141.89700000000002 21.061000000000018 C 143.42900000000003 21.061000000000018 145.05700000000002 21.610000000000017 145.87000000000003 22.55600000000002 L 145.87000000000003 21.988000000000017 C 145.87000000000003 21.610000000000017 146.11600000000004 21.383000000000017 146.51300000000003 21.383000000000017 L 149.80400000000003 21.383000000000017 C 150.20200000000003 21.383000000000017 150.44800000000004 21.610000000000017 150.44800000000004 21.988000000000017 L 150.44800000000004 38.31400000000002 C 150.44800000000004 41.00000000000002 149.74800000000005 43.081000000000024 148.34800000000004 44.499000000000024 C 146.98600000000005 45.82400000000003 144.65800000000004 46.599000000000025 141.93500000000003 46.599000000000025 Z M 142.37 25.204 C 140.062 25.204 138.946 26.699 138.946 29.744 C 138.946 31.617 139.419 32.922 140.326 33.641 C 140.856 34.076 141.519 34.284 142.29399999999998 34.284 C 143.789 34.284 144.98 33.849 145.85099999999997 32.979 L 145.85099999999997 26.642 C 144.86699999999996 25.695999999999998 143.69399999999996 25.204 142.36999999999998 25.204 Z M 84.351 46.637 L 81.021 46.637 C 80.644 46.637 80.417 46.410000000000004 80.417 46.032000000000004 L 80.417 22.12 C 80.417 21.93 80.492 21.609 81.022 21.514 C 81.89200000000001 21.343999999999998 82.78200000000001 21.212 83.67 21.154 C 84.5379828507124 21.079012849475486 85.40878406531678 21.041311494207182 86.28 21.041000000000007 C 89.118 21.041 91.426 21.761 93.167 23.198 C 95.002 24.749 95.947 26.943 95.947 29.743000000000002 C 95.947 32.637 94.964 34.908 93.034 36.497 C 91.426 37.802 89.59100000000001 38.483 87.62400000000001 38.483 C 86.64000000000001 38.483 85.751 38.388 84.97600000000001 38.217999999999996 L 84.97600000000001 46.031 C 84.93800000000002 46.409 84.73000000000002 46.635999999999996 84.35100000000001 46.635999999999996 Z M 84.938 34.095 C 85.524 34.303 86.262 34.397999999999996 87.151 34.397999999999996 C 88.17437409203208 34.41002609114447 89.1680275673651 34.05408522123054 89.951 33.394999999999996 C 90.878 32.562999999999995 91.351 31.370999999999995 91.351 29.857999999999997 C 91.351 28.362999999999996 90.897 27.189999999999998 89.989 26.357999999999997 C 89.156 25.600999999999996 88.078 25.203999999999997 86.77300000000001 25.203999999999997 C 86.433 25.203999999999997 86.09200000000001 25.222999999999995 85.77000000000001 25.241999999999997 C 85.50500000000001 25.260999999999996 85.24000000000001 25.279999999999998 84.97600000000001 25.317999999999998 L 84.97600000000001 34.095 L 84.93800000000002 34.095 Z M 101.547 38.162 L 98.217 38.162 C 97.839 38.162 97.612 37.935 97.612 37.557 L 97.612 21.969 C 97.612 21.591 97.839 21.364 98.21799999999999 21.364 L 101.54699999999998 21.364 C 101.92499999999998 21.364 102.15199999999999 21.591 102.15199999999999 21.969 L 102.15199999999999 22.859 C 102.85199999999999 21.894000000000002 104.04399999999998 21.118000000000002 105.31199999999998 21.042 L 105.55699999999999 21.042 C 106.99499999999999 21.042 108.35699999999999 21.667 109.58699999999999 22.896 C 110.00299999999999 23.312 109.77599999999998 23.634 109.66199999999999 23.766000000000002 L 107.544 25.923000000000002 C 107.392 26.074 107.241 26.150000000000002 107.071 26.150000000000002 C 106.938 26.150000000000002 106.768 26.093000000000004 106.598 25.847 C 106.352 25.487000000000002 105.917 25.28 105.31099999999999 25.204 C 104.479 25.11 103.779 25.431 103.193 26.188000000000002 C 102.493 27.077 102.133 28.42 102.133 30.198 L 102.133 37.576 C 102.15299999999999 37.936 101.925 38.162 101.547 38.162 Z M 114.41 38.162 L 111.081 38.162 C 110.703 38.162 110.476 37.935 110.476 37.557 L 110.476 21.969 C 110.476 21.591 110.703 21.364 111.081 21.364 L 114.411 21.364 C 114.789 21.364 115.016 21.591 115.016 21.969 L 115.016 37.557 C 115.016 37.935 114.789 38.162 114.411 38.162 Z M 132.136 38.162 L 128.844 38.162 C 128.466 38.162 128.239 37.935 128.239 37.557 L 128.239 29.044000000000004 C 128.239 27.777000000000005 128.06900000000002 26.831000000000003 127.709 26.226000000000003 C 127.25500000000001 25.506000000000004 126.479 25.147000000000002 125.32600000000001 25.147000000000002 C 124.49300000000001 25.147000000000002 123.85000000000001 25.431 123.358 25.999000000000002 C 122.923 26.434 122.658 26.907000000000004 122.56400000000001 27.399 C 122.412 28.155 122.35600000000001 29.025000000000002 122.35600000000001 29.952 L 122.35600000000001 37.538000000000004 C 122.35600000000001 37.916000000000004 122.129 38.143 121.75000000000001 38.143 L 118.42000000000002 38.143 C 118.04300000000002 38.143 117.81600000000002 37.916000000000004 117.81600000000002 37.538000000000004 L 117.81600000000002 21.95 C 117.81600000000002 21.572 118.04300000000002 21.345 118.42100000000002 21.345 L 121.75100000000002 21.345 C 122.12900000000002 21.345 122.35600000000002 21.572 122.35600000000002 21.95 L 122.35600000000002 22.348 C 123.07500000000002 21.61 124.49300000000002 21.023 125.98800000000003 21.023 C 128.16300000000004 21.023 129.86600000000004 21.704 131.05800000000002 23.029 C 132.17400000000004 24.277 132.76000000000002 25.961 132.76000000000002 28.061 L 132.76000000000002 37.557 C 132.76000000000002 37.935 132.53300000000002 38.162 132.13600000000002 38.162 Z M 69.728 38.522 C 66.62599999999999 38.522 63.788 37.595 61.25399999999999 35.741 C 61.11563371114136 35.64614018653422 61.015087643887014 35.50558811364698 60.96999999999999 35.344 C 60.931999999999995 35.174 60.98899999999999 35.004 61.120999999999995 34.814 L 63.315999999999995 31.995 C 63.42121523420589 31.823639843559523 63.605982387455164 31.71714472264395 63.806999999999995 31.712 C 63.958999999999996 31.712 64.091 31.768 64.261 31.882 C 65.151 32.562000000000005 65.813 33.017 66.24799999999999 33.262 C 67.231 33.755 68.404 34.001 69.728 34.001 C 72.642 34.001 74.05999999999999 32.998 74.05999999999999 30.916999999999998 C 74.05999999999999 29.877 73.41699999999999 29.101 72.07399999999998 28.552 C 71.37779390360507 28.313779960011036 70.67769830480601 28.087082337542775 69.97399999999995 27.871999999999993 L 67.856 27.209 C 66.853 26.869 66.002 26.529 65.321 26.188 C 64.64 25.848 64.11 25.544999999999998 63.713 25.279999999999998 C 61.821 23.898999999999997 60.856 21.988 60.856 19.566999999999997 C 60.856 17.447999999999997 61.689 15.745999999999997 63.316 14.496999999999996 C 64.923 13.266999999999996 67.23100000000001 12.642999999999997 70.182 12.642999999999997 C 72.69800000000001 12.642999999999997 75.177 13.380999999999997 77.56 14.818999999999997 C 77.73 14.912999999999997 77.84400000000001 15.045999999999998 77.882 15.196999999999997 C 77.91900000000001 15.366999999999997 77.86200000000001 15.536999999999997 77.73 15.726999999999997 L 75.763 18.676999999999996 C 75.593 18.923999999999996 75.385 18.979999999999997 75.233 18.979999999999997 C 75.11532228007654 18.982320287202334 74.99878075975471 18.95661259889605 74.893 18.904999999999998 C 73.171 17.750999999999998 71.601 17.165 70.163 17.165 C 67.231 17.165 65.79299999999999 17.939999999999998 65.79299999999999 19.567 C 65.79299999999999 20.418 66.36099999999999 21.118 67.51499999999999 21.723 C 67.96899999999998 21.95 69.33099999999999 22.442999999999998 71.60099999999998 23.18 C 73.90899999999999 23.899 75.64899999999999 24.75 76.82199999999999 25.733999999999998 C 78.29799999999999 27.058 79.05499999999999 28.798 79.05499999999999 30.916999999999998 C 79.05499999999999 33.187 78.20299999999999 35.041 76.50099999999999 36.440999999999995 C 74.779 37.821 72.50899999999999 38.520999999999994 69.728 38.520999999999994 Z M 112.084 19.037 C 111.289 19.037 110.589 18.677 110.24900000000001 18.072 C 109.662 17.051 110.19200000000001 15.632 111.459 14.913 C 111.9203457860869 14.648481185382034 112.44126656872236 14.505348394380484 112.973 14.497 C 113.767 14.497 114.467 14.857 114.80799999999999 15.462 C 115.092 15.972 115.12899999999999 16.578 114.883 17.183 C 114.65599999999999 17.77 114.20299999999999 18.28 113.597 18.64 C 113.10499999999999 18.886 112.594 19.037 112.08399999999999 19.037 Z" stroke-linecap="round" />
</g>
</g>
</g>
</svg>